<svg width="25" height="24" viewBox="0 0 25 24" fill="none" xmlns="http://www.w3.org/2000/svg">
<g id="search">
<mask id="mask0_432_886" style="mask-type:alpha" maskUnits="userSpaceOnUse" x="0" y="0" width="25" height="24">
<rect id="Bounding box" x="0.787109" width="24" height="24" fill="#D9D9D9"/>
</mask>
<g mask="url(#mask0_432_886)">
<path id="search_2" d="M19.4727 19.7896L15.6799 15.9969C15.1799 16.3969 14.6049 16.7135 13.9549 16.9469C13.3049 17.1802 12.6132 17.2969 11.8799 17.2969C10.0632 17.2969 8.52572 16.6677 7.26738 15.4094C6.00905 14.151 5.37988 12.6135 5.37988 10.7969C5.37988 8.98021 6.00905 7.44271 7.26738 6.18438C8.52572 4.92604 10.0632 4.29688 11.8799 4.29688C13.6965 4.29688 15.234 4.92604 16.4924 6.18438C17.7507 7.44271 18.3799 8.98021 18.3799 10.7969C18.3799 11.5302 18.2632 12.2219 18.0299 12.8719C17.7966 13.5219 17.4799 14.0969 17.0799 14.5969L20.8727 18.3896L19.4727 19.7896ZM11.8799 15.2969C13.1299 15.2969 14.1924 14.8594 15.0674 13.9844C15.9424 13.1094 16.3799 12.0469 16.3799 10.7969C16.3799 9.54688 15.9424 8.48438 15.0674 7.60938C14.1924 6.73438 13.1299 6.29688 11.8799 6.29688C10.6299 6.29688 9.56738 6.73438 8.69238 7.60938C7.81738 8.48438 7.37988 9.54688 7.37988 10.7969C7.37988 12.0469 7.81738 13.1094 8.69238 13.9844C9.56738 14.8594 10.6299 15.2969 11.8799 15.2969Z" fill="white"/>
</g>
</g>
</svg>
