<svg width="216" height="47" viewBox="0 0 216 47" fill="none" xmlns="http://www.w3.org/2000/svg">
<path opacity="0.5" fill-rule="evenodd" clip-rule="evenodd" d="M30.0574 41.4201C20.0968 31.4595 20.0968 15.3102 30.0574 5.34961L36.0691 11.3614C29.4287 18.0018 29.4287 28.768 36.0691 35.4084L30.0574 41.4201Z" fill="#9747FF"/>
<path opacity="0.5" fill-rule="evenodd" clip-rule="evenodd" d="M36.0706 35.4089C26.11 25.4483 9.96061 25.4483 0 35.4089L6.01176 41.4207C12.6522 34.7803 23.4184 34.7803 30.0588 41.4207L36.0706 35.4089Z" fill="#9747FF"/>
<path opacity="0.5" fill-rule="evenodd" clip-rule="evenodd" d="M0 11.3614C9.96061 21.322 26.11 21.322 36.0706 11.3614L30.0588 5.34961C23.4184 11.99 12.6522 11.99 6.01176 5.34961L0 11.3614Z" fill="#9747FF"/>
<path opacity="0.5" fill-rule="evenodd" clip-rule="evenodd" d="M6.01176 5.34961C15.9724 15.3102 15.9724 31.4595 6.01176 41.4201L0 35.4084C6.64041 28.768 6.64041 18.0018 0 11.3614L6.01176 5.34961Z" fill="#9747FF"/>
<path d="M53.8106 33.7699C52.5013 33.7699 51.3203 33.5474 50.2678 33.1024C49.2237 32.6574 48.3594 32.0241 47.6748 31.2026C46.9987 30.3725 46.558 29.3926 46.3526 28.263L48.7145 27.8908C49.0141 29.0546 49.6345 29.966 50.5758 30.6249C51.5257 31.2753 52.6425 31.6005 53.9261 31.6005C54.7562 31.6005 55.505 31.4721 56.1725 31.2154C56.8485 30.9501 57.3834 30.5736 57.777 30.0858C58.1707 29.598 58.3675 29.0204 58.3675 28.3529C58.3675 27.9421 58.2948 27.5913 58.1493 27.3003C58.0124 27.0008 57.8198 26.7483 57.5717 26.543C57.332 26.329 57.0582 26.1493 56.7501 26.0038C56.4421 25.8584 56.1211 25.7386 55.7874 25.6444L51.0764 24.2453C50.563 24.0912 50.0666 23.8987 49.5874 23.6676C49.1082 23.428 48.6803 23.1328 48.3038 22.7819C47.9272 22.4225 47.6277 21.9946 47.4052 21.4983C47.1827 20.9934 47.0715 20.3986 47.0715 19.714C47.0715 18.6186 47.3539 17.6859 47.9187 16.9157C48.492 16.1369 49.2665 15.5422 50.2421 15.1314C51.2176 14.7206 52.3173 14.5195 53.541 14.5281C54.7819 14.5367 55.8901 14.7592 56.8657 15.1956C57.8498 15.6235 58.6628 16.2396 59.3046 17.044C59.955 17.8484 60.3914 18.8112 60.6139 19.9322L58.1878 20.3558C58.0594 19.6028 57.7728 18.9567 57.3278 18.4175C56.8913 17.8698 56.3436 17.4505 55.6847 17.1596C55.0258 16.86 54.3027 16.706 53.5154 16.6974C52.7623 16.6889 52.082 16.8087 51.4744 17.0569C50.8668 17.305 50.3833 17.6516 50.0239 18.0966C49.6644 18.5331 49.4847 19.038 49.4847 19.6113C49.4847 20.1761 49.6473 20.6339 49.9725 20.9848C50.2977 21.3271 50.6956 21.601 51.1663 21.8063C51.6455 22.0032 52.1119 22.1658 52.5655 22.2941L56.0826 23.3082C56.4848 23.4194 56.947 23.5735 57.469 23.7703C57.9995 23.9671 58.513 24.2453 59.0093 24.6047C59.5057 24.9555 59.9164 25.4262 60.2416 26.0167C60.5668 26.5986 60.7294 27.3345 60.7294 28.2245C60.7294 29.1145 60.5497 29.9061 60.1903 30.5993C59.8394 31.2924 59.3474 31.8743 58.7141 32.345C58.0808 32.8071 57.3449 33.158 56.5062 33.3976C55.6676 33.6458 54.769 33.7699 53.8106 33.7699ZM69.1342 33.7699C67.7308 33.7699 66.537 33.4575 65.5529 32.8328C64.5773 32.1995 63.8328 31.3309 63.3194 30.227C62.8059 29.1231 62.5406 27.8651 62.5235 26.4531C62.5406 25.0069 62.8102 23.7361 63.3322 22.6407C63.8628 21.5368 64.6201 20.6767 65.6042 20.0606C66.5884 19.4444 67.7736 19.1364 69.1599 19.1364C70.6233 19.1364 71.8812 19.4958 72.9338 20.2146C73.995 20.9335 74.7052 21.9176 75.0647 23.167L72.8055 23.8473C72.5145 23.0429 72.0396 22.4182 71.3806 21.9732C70.7302 21.5282 69.9814 21.3057 69.1342 21.3057C68.1844 21.3057 67.4013 21.5282 66.7852 21.9732C66.169 22.4096 65.7112 23.0172 65.4117 23.796C65.1122 24.5662 64.9581 25.4519 64.9496 26.4531C64.9667 27.9935 65.3218 29.2386 66.015 30.1885C66.7167 31.1298 67.7565 31.6005 69.1342 31.6005C70.0414 31.6005 70.7944 31.3951 71.3935 30.9844C71.9925 30.565 72.446 29.9617 72.7541 29.1744L75.0647 29.7777C74.5854 31.0699 73.8366 32.0583 72.8183 32.7429C71.7999 33.4276 70.5719 33.7699 69.1342 33.7699ZM81.4969 33.7699C80.4614 33.7699 79.5928 33.5816 78.8911 33.2051C78.1979 32.82 77.6717 32.3151 77.3122 31.6904C76.9614 31.0657 76.7859 30.381 76.7859 29.6365C76.7859 28.9091 76.9229 28.2802 77.1967 27.7496C77.4791 27.2105 77.8728 26.7655 78.3777 26.4146C78.8826 26.0552 79.4859 25.7728 80.1876 25.5674C80.8465 25.3877 81.5825 25.2337 82.3954 25.1053C83.217 24.9684 84.0471 24.8443 84.8857 24.733C85.7244 24.6218 86.5074 24.5148 87.2348 24.4121L86.4132 24.8871C86.4389 23.6548 86.1907 22.7434 85.6687 22.1529C85.1553 21.5624 84.2653 21.2672 82.9988 21.2672C82.1601 21.2672 81.4242 21.4598 80.7909 21.8448C80.1662 22.2214 79.7255 22.8375 79.4688 23.6933L77.2994 23.0386C77.6331 21.8234 78.2792 20.8693 79.2377 20.1761C80.1961 19.4829 81.4584 19.1364 83.0244 19.1364C84.2824 19.1364 85.3607 19.3631 86.2592 19.8167C87.1663 20.2617 87.8167 20.9377 88.2103 21.8448C88.4072 22.2727 88.5312 22.7391 88.5826 23.244C88.6339 23.7404 88.6596 24.2624 88.6596 24.8101V33.3848H86.6315V30.0601L87.1064 30.3682C86.5844 31.4893 85.8527 32.3365 84.9114 32.9098C83.9786 33.4832 82.8404 33.7699 81.4969 33.7699ZM81.8435 31.8572C82.665 31.8572 83.3753 31.7118 83.9743 31.4208C84.5819 31.1213 85.0697 30.7319 85.4377 30.2527C85.8057 29.7649 86.0453 29.2343 86.1565 28.661C86.2849 28.2331 86.3533 27.7581 86.3619 27.2361C86.379 26.7056 86.3876 26.2991 86.3876 26.0167L87.1834 26.3633C86.4389 26.4659 85.7072 26.5644 84.9884 26.6585C84.2696 26.7526 83.5892 26.8553 82.9474 26.9666C82.3056 27.0693 81.728 27.1933 81.2145 27.3388C80.838 27.4586 80.4828 27.6127 80.1491 27.8009C79.8239 27.9892 79.5586 28.2331 79.3532 28.5326C79.1564 28.8236 79.058 29.1873 79.058 29.6237C79.058 30.0002 79.1521 30.3597 79.3404 30.702C79.5372 31.0443 79.8367 31.3224 80.2389 31.5363C80.6497 31.7503 81.1845 31.8572 81.8435 31.8572ZM92.1254 33.3848V14.5153H94.4103V33.3848H92.1254ZM104.141 33.7699C102.78 33.7699 101.591 33.4703 100.572 32.8713C99.5626 32.2637 98.7753 31.4208 98.2105 30.3425C97.6457 29.2557 97.3633 27.9892 97.3633 26.543C97.3633 25.0283 97.6414 23.719 98.1977 22.615C98.7539 21.5025 99.5284 20.6468 100.521 20.0477C101.522 19.4402 102.695 19.1364 104.038 19.1364C105.433 19.1364 106.618 19.4573 107.594 20.0991C108.578 20.7409 109.314 21.6566 109.802 22.8461C110.298 24.0356 110.512 25.4519 110.444 27.0949H108.133V26.2734C108.107 24.5704 107.761 23.2996 107.093 22.461C106.426 21.6138 105.433 21.1902 104.115 21.1902C102.703 21.1902 101.629 21.6437 100.893 22.5508C100.157 23.458 99.7894 24.7587 99.7894 26.4531C99.7894 28.0876 100.157 29.3541 100.893 30.2527C101.629 31.1512 102.678 31.6005 104.038 31.6005C104.954 31.6005 105.75 31.3908 106.426 30.9715C107.102 30.5522 107.632 29.9489 108.017 29.1616L110.213 29.9189C109.673 31.1427 108.86 32.0926 107.774 32.7686C106.695 33.4361 105.484 33.7699 104.141 33.7699ZM99.0192 27.0949V25.2593H109.263V27.0949H99.0192ZM123.044 33.3848V26.4403C123.044 25.7813 122.984 25.1481 122.865 24.5405C122.753 23.9329 122.552 23.3895 122.261 22.9103C121.979 22.4225 121.594 22.0374 121.106 21.755C120.627 21.4726 120.019 21.3314 119.283 21.3314C118.71 21.3314 118.188 21.4298 117.717 21.6266C117.255 21.8149 116.857 22.1059 116.523 22.4995C116.19 22.8931 115.929 23.3895 115.74 23.9885C115.561 24.579 115.471 25.2764 115.471 26.0809L113.969 25.6187C113.969 24.2752 114.209 23.1242 114.688 22.1658C115.176 21.1987 115.856 20.4585 116.729 19.9451C117.61 19.423 118.646 19.162 119.835 19.162C120.734 19.162 121.5 19.3032 122.133 19.5856C122.766 19.868 123.292 20.2446 123.712 20.7152C124.131 21.1774 124.461 21.6994 124.7 22.2813C124.94 22.8546 125.107 23.4408 125.201 24.0399C125.304 24.6303 125.355 25.1909 125.355 25.7214V33.3848H123.044ZM113.16 33.3848V19.5215H115.214V23.2312H115.471V33.3848H113.16ZM134.446 33.7699C133.085 33.7699 131.896 33.4703 130.877 32.8713C129.868 32.2637 129.08 31.4208 128.515 30.3425C127.951 29.2557 127.668 27.9892 127.668 26.543C127.668 25.0283 127.946 23.719 128.503 22.615C129.059 21.5025 129.833 20.6468 130.826 20.0477C131.827 19.4402 133 19.1364 134.343 19.1364C135.738 19.1364 136.923 19.4573 137.899 20.0991C138.883 20.7409 139.619 21.6566 140.107 22.8461C140.603 24.0356 140.817 25.4519 140.749 27.0949H138.438V26.2734C138.412 24.5704 138.066 23.2996 137.398 22.461C136.731 21.6138 135.738 21.1902 134.42 21.1902C133.008 21.1902 131.934 21.6437 131.198 22.5508C130.462 23.458 130.094 24.7587 130.094 26.4531C130.094 28.0876 130.462 29.3541 131.198 30.2527C131.934 31.1512 132.982 31.6005 134.343 31.6005C135.259 31.6005 136.055 31.3908 136.731 30.9715C137.407 30.5522 137.937 29.9489 138.322 29.1616L140.517 29.9189C139.978 31.1427 139.165 32.0926 138.079 32.7686C137 33.4361 135.789 33.7699 134.446 33.7699ZM129.324 27.0949V25.2593H139.568V27.0949H129.324ZM147.419 33.3848L142.066 14.9004H144.454L148.561 29.521L152.656 14.9132L155.056 14.9004L159.164 29.521L163.259 14.9004H165.659L160.307 33.3848H158.022L153.863 18.8925L149.704 33.3848H147.419ZM172.094 33.7699C170.716 33.7699 169.527 33.4575 168.526 32.8328C167.533 32.2081 166.767 31.3438 166.228 30.2398C165.689 29.1359 165.419 27.8694 165.419 26.4403C165.419 24.9855 165.693 23.7104 166.241 22.615C166.788 21.5197 167.563 20.6682 168.564 20.0606C169.565 19.4444 170.742 19.1364 172.094 19.1364C173.481 19.1364 174.674 19.4487 175.676 20.0734C176.677 20.6896 177.443 21.5496 177.973 22.6535C178.512 23.7489 178.782 25.0112 178.782 26.4403C178.782 27.8865 178.512 29.1616 177.973 30.2655C177.434 31.3609 176.664 32.2209 175.663 32.8456C174.661 33.4618 173.472 33.7699 172.094 33.7699ZM172.094 31.6005C173.532 31.6005 174.602 31.1213 175.303 30.1628C176.005 29.2044 176.356 27.9635 176.356 26.4403C176.356 24.8742 176.001 23.6291 175.29 22.7049C174.58 21.7721 173.515 21.3057 172.094 21.3057C171.127 21.3057 170.331 21.5239 169.707 21.9604C169.082 22.3968 168.616 23.0001 168.307 23.7703C167.999 24.5405 167.845 25.4305 167.845 26.4403C167.845 27.9978 168.205 29.2472 168.924 30.1885C169.642 31.1298 170.699 31.6005 172.094 31.6005ZM181.48 33.3848V19.5215H183.521V22.8718L183.187 22.4353C183.35 22.0074 183.559 21.6138 183.816 21.2544C184.081 20.895 184.377 20.5997 184.702 20.3687C185.061 20.0777 185.468 19.8552 185.921 19.7012C186.375 19.5471 186.837 19.4573 187.308 19.4316C187.778 19.3974 188.219 19.4273 188.63 19.5215V21.6651C188.15 21.5368 187.624 21.5025 187.051 21.5624C186.477 21.6223 185.947 21.832 185.459 22.1914C185.014 22.5081 184.668 22.8931 184.419 23.3467C184.18 23.8003 184.013 24.2923 183.919 24.8229C183.825 25.3449 183.778 25.8798 183.778 26.4274V33.3848H181.48ZM190.916 33.3848L190.929 14.9004H193.239V26.1964L199.054 19.5215H202.019L195.896 26.4531L202.738 33.3848H199.542L193.239 26.7098V33.3848H190.916ZM208.874 33.757C207.222 33.757 205.866 33.3976 204.805 32.6788C203.752 31.9514 203.106 30.9373 202.866 29.6365L205.203 29.2643C205.391 30.0174 205.823 30.6164 206.499 31.0614C207.175 31.4978 208.014 31.716 209.015 31.716C209.965 31.716 210.709 31.5192 211.249 31.1256C211.788 30.7319 212.057 30.1971 212.057 29.521C212.057 29.1274 211.967 28.8107 211.788 28.5711C211.608 28.3229 211.236 28.0919 210.671 27.878C210.115 27.664 209.272 27.4073 208.142 27.1078C206.918 26.7826 205.956 26.4446 205.254 26.0937C204.552 25.7428 204.052 25.3363 203.752 24.8742C203.453 24.4121 203.303 23.8516 203.303 23.1927C203.303 22.3797 203.525 21.6694 203.97 21.0618C204.415 20.4457 205.036 19.9707 205.832 19.637C206.636 19.3032 207.569 19.1364 208.63 19.1364C209.683 19.1364 210.624 19.3032 211.454 19.637C212.284 19.9707 212.952 20.4457 213.456 21.0618C213.97 21.6694 214.274 22.3797 214.368 23.1927L212.032 23.6163C211.92 22.8718 211.561 22.2856 210.953 21.8577C210.354 21.4298 209.58 21.203 208.63 21.1774C207.731 21.1431 207 21.3014 206.435 21.6523C205.879 22.0032 205.601 22.4781 205.601 23.0771C205.601 23.4109 205.703 23.6976 205.909 23.9372C206.123 24.1768 206.512 24.4036 207.077 24.6175C207.65 24.8314 208.48 25.0753 209.567 25.3492C210.791 25.6573 211.754 25.9953 212.455 26.3633C213.166 26.7227 213.67 27.1506 213.97 27.6469C214.269 28.1347 214.419 28.738 214.419 29.4568C214.419 30.7918 213.927 31.8444 212.943 32.6146C211.959 33.3762 210.603 33.757 208.874 33.757Z" fill="#9747FF"/>
</svg>
