<svg width="216" height="37" viewBox="0 0 216 37" fill="none" xmlns="http://www.w3.org/2000/svg">
<path opacity="0.5" fill-rule="evenodd" clip-rule="evenodd" d="M30.0574 36.4201C20.0968 26.4595 20.0968 10.3102 30.0574 0.349609L36.0691 6.36136C29.4287 13.0018 29.4287 23.768 36.0691 30.4084L30.0574 36.4201Z" fill="#9747FF"/>
<path opacity="0.5" fill-rule="evenodd" clip-rule="evenodd" d="M36.0706 30.4089C26.11 20.4483 9.96061 20.4483 0 30.4089L6.01176 36.4207C12.6522 29.7803 23.4184 29.7803 30.0588 36.4207L36.0706 30.4089Z" fill="#9747FF"/>
<path opacity="0.5" fill-rule="evenodd" clip-rule="evenodd" d="M0 6.36136C9.96061 16.322 26.11 16.322 36.0706 6.36136L30.0588 0.349609C23.4184 6.99001 12.6522 6.99001 6.01176 0.349609L0 6.36136Z" fill="#9747FF"/>
<path opacity="0.5" fill-rule="evenodd" clip-rule="evenodd" d="M6.01176 0.349609C15.9724 10.3102 15.9724 26.4595 6.01176 36.4201L0 30.4084C6.64041 23.768 6.64041 13.0018 0 6.36136L6.01176 0.349609Z" fill="#9747FF"/>
<path d="M53.8106 28.7699C52.5013 28.7699 51.3203 28.5474 50.2678 28.1024C49.2237 27.6574 48.3594 27.0241 47.6748 26.2026C46.9987 25.3725 46.558 24.3926 46.3526 23.263L48.7145 22.8908C49.0141 24.0546 49.6345 24.966 50.5758 25.6249C51.5257 26.2753 52.6425 26.6005 53.9261 26.6005C54.7562 26.6005 55.505 26.4721 56.1725 26.2154C56.8485 25.9501 57.3834 25.5736 57.777 25.0858C58.1707 24.598 58.3675 24.0204 58.3675 23.3529C58.3675 22.9421 58.2948 22.5913 58.1493 22.3003C58.0124 22.0008 57.8198 21.7483 57.5717 21.543C57.332 21.329 57.0582 21.1493 56.7501 21.0038C56.4421 20.8584 56.1211 20.7386 55.7874 20.6444L51.0764 19.2453C50.563 19.0912 50.0666 18.8987 49.5874 18.6676C49.1082 18.428 48.6803 18.1328 48.3038 17.7819C47.9272 17.4225 47.6277 16.9946 47.4052 16.4983C47.1827 15.9934 47.0715 15.3986 47.0715 14.714C47.0715 13.6186 47.3539 12.6859 47.9187 11.9157C48.492 11.1369 49.2665 10.5422 50.2421 10.1314C51.2176 9.72064 52.3173 9.51954 53.541 9.5281C54.7819 9.53665 55.8901 9.75915 56.8657 10.1956C57.8498 10.6235 58.6628 11.2396 59.3046 12.044C59.955 12.8484 60.3914 13.8112 60.6139 14.9322L58.1878 15.3558C58.0594 14.6028 57.7728 13.9567 57.3278 13.4175C56.8913 12.8698 56.3436 12.4505 55.6847 12.1596C55.0258 11.86 54.3027 11.706 53.5154 11.6974C52.7623 11.6889 52.082 11.8087 51.4744 12.0569C50.8668 12.305 50.3833 12.6516 50.0239 13.0966C49.6644 13.5331 49.4847 14.038 49.4847 14.6113C49.4847 15.1761 49.6473 15.6339 49.9725 15.9848C50.2977 16.3271 50.6956 16.601 51.1663 16.8063C51.6455 17.0032 52.1119 17.1658 52.5655 17.2941L56.0826 18.3082C56.4848 18.4194 56.947 18.5735 57.469 18.7703C57.9995 18.9671 58.513 19.2453 59.0093 19.6047C59.5057 19.9555 59.9164 20.4262 60.2416 21.0167C60.5668 21.5986 60.7294 22.3345 60.7294 23.2245C60.7294 24.1145 60.5497 24.9061 60.1903 25.5993C59.8394 26.2924 59.3474 26.8743 58.7141 27.345C58.0808 27.8071 57.3449 28.158 56.5062 28.3976C55.6676 28.6458 54.769 28.7699 53.8106 28.7699ZM69.1342 28.7699C67.7308 28.7699 66.537 28.4575 65.5529 27.8328C64.5773 27.1995 63.8328 26.3309 63.3194 25.227C62.8059 24.1231 62.5406 22.8651 62.5235 21.4531C62.5406 20.0069 62.8102 18.7361 63.3322 17.6407C63.8628 16.5368 64.6201 15.6767 65.6042 15.0606C66.5884 14.4444 67.7736 14.1364 69.1599 14.1364C70.6233 14.1364 71.8812 14.4958 72.9338 15.2146C73.995 15.9335 74.7052 16.9176 75.0647 18.167L72.8055 18.8473C72.5145 18.0429 72.0396 17.4182 71.3806 16.9732C70.7302 16.5282 69.9814 16.3057 69.1342 16.3057C68.1844 16.3057 67.4013 16.5282 66.7852 16.9732C66.169 17.4096 65.7112 18.0172 65.4117 18.796C65.1122 19.5662 64.9581 20.4519 64.9496 21.4531C64.9667 22.9935 65.3218 24.2386 66.015 25.1885C66.7167 26.1298 67.7565 26.6005 69.1342 26.6005C70.0414 26.6005 70.7944 26.3951 71.3935 25.9844C71.9925 25.565 72.446 24.9617 72.7541 24.1744L75.0647 24.7777C74.5854 26.0699 73.8366 27.0583 72.8183 27.7429C71.7999 28.4276 70.5719 28.7699 69.1342 28.7699ZM81.4969 28.7699C80.4614 28.7699 79.5928 28.5816 78.8911 28.2051C78.1979 27.82 77.6717 27.3151 77.3122 26.6904C76.9614 26.0657 76.7859 25.381 76.7859 24.6365C76.7859 23.9091 76.9229 23.2802 77.1967 22.7496C77.4791 22.2105 77.8728 21.7655 78.3777 21.4146C78.8826 21.0552 79.4859 20.7728 80.1876 20.5674C80.8465 20.3877 81.5825 20.2337 82.3954 20.1053C83.217 19.9684 84.0471 19.8443 84.8857 19.733C85.7244 19.6218 86.5074 19.5148 87.2348 19.4121L86.4132 19.8871C86.4389 18.6548 86.1907 17.7434 85.6687 17.1529C85.1553 16.5624 84.2653 16.2672 82.9988 16.2672C82.1601 16.2672 81.4242 16.4598 80.7909 16.8448C80.1662 17.2214 79.7255 17.8375 79.4688 18.6933L77.2994 18.0386C77.6331 16.8234 78.2792 15.8693 79.2377 15.1761C80.1961 14.4829 81.4584 14.1364 83.0244 14.1364C84.2824 14.1364 85.3607 14.3631 86.2592 14.8167C87.1663 15.2617 87.8167 15.9377 88.2103 16.8448C88.4072 17.2727 88.5312 17.7391 88.5826 18.244C88.6339 18.7404 88.6596 19.2624 88.6596 19.8101V28.3848H86.6315V25.0601L87.1064 25.3682C86.5844 26.4893 85.8527 27.3365 84.9114 27.9098C83.9786 28.4832 82.8404 28.7699 81.4969 28.7699ZM81.8435 26.8572C82.665 26.8572 83.3753 26.7118 83.9743 26.4208C84.5819 26.1213 85.0697 25.7319 85.4377 25.2527C85.8057 24.7649 86.0453 24.2343 86.1565 23.661C86.2849 23.2331 86.3533 22.7581 86.3619 22.2361C86.379 21.7056 86.3876 21.2991 86.3876 21.0167L87.1834 21.3633C86.4389 21.4659 85.7072 21.5644 84.9884 21.6585C84.2696 21.7526 83.5892 21.8553 82.9474 21.9666C82.3056 22.0693 81.728 22.1933 81.2145 22.3388C80.838 22.4586 80.4828 22.6127 80.1491 22.8009C79.8239 22.9892 79.5586 23.2331 79.3532 23.5326C79.1564 23.8236 79.058 24.1873 79.058 24.6237C79.058 25.0002 79.1521 25.3597 79.3404 25.702C79.5372 26.0443 79.8367 26.3224 80.2389 26.5363C80.6497 26.7503 81.1845 26.8572 81.8435 26.8572ZM92.1254 28.3848V9.51526H94.4103V28.3848H92.1254ZM104.141 28.7699C102.78 28.7699 101.591 28.4703 100.572 27.8713C99.5626 27.2637 98.7753 26.4208 98.2105 25.3425C97.6457 24.2557 97.3633 22.9892 97.3633 21.543C97.3633 20.0283 97.6414 18.719 98.1977 17.615C98.7539 16.5025 99.5284 15.6468 100.521 15.0477C101.522 14.4402 102.695 14.1364 104.038 14.1364C105.433 14.1364 106.618 14.4573 107.594 15.0991C108.578 15.7409 109.314 16.6566 109.802 17.8461C110.298 19.0356 110.512 20.4519 110.444 22.0949H108.133V21.2734C108.107 19.5704 107.761 18.2996 107.093 17.461C106.426 16.6138 105.433 16.1902 104.115 16.1902C102.703 16.1902 101.629 16.6437 100.893 17.5508C100.157 18.458 99.7894 19.7587 99.7894 21.4531C99.7894 23.0876 100.157 24.3541 100.893 25.2527C101.629 26.1512 102.678 26.6005 104.038 26.6005C104.954 26.6005 105.75 26.3908 106.426 25.9715C107.102 25.5522 107.632 24.9489 108.017 24.1616L110.213 24.9189C109.673 26.1427 108.86 27.0926 107.774 27.7686C106.695 28.4361 105.484 28.7699 104.141 28.7699ZM99.0192 22.0949V20.2593H109.263V22.0949H99.0192ZM123.044 28.3848V21.4403C123.044 20.7813 122.984 20.1481 122.865 19.5405C122.753 18.9329 122.552 18.3895 122.261 17.9103C121.979 17.4225 121.594 17.0374 121.106 16.755C120.627 16.4726 120.019 16.3314 119.283 16.3314C118.71 16.3314 118.188 16.4298 117.717 16.6266C117.255 16.8149 116.857 17.1059 116.523 17.4995C116.19 17.8931 115.929 18.3895 115.74 18.9885C115.561 19.579 115.471 20.2764 115.471 21.0809L113.969 20.6187C113.969 19.2752 114.209 18.1242 114.688 17.1658C115.176 16.1987 115.856 15.4585 116.729 14.9451C117.61 14.423 118.646 14.162 119.835 14.162C120.734 14.162 121.5 14.3032 122.133 14.5856C122.766 14.868 123.292 15.2446 123.712 15.7152C124.131 16.1774 124.461 16.6994 124.7 17.2813C124.94 17.8546 125.107 18.4408 125.201 19.0399C125.304 19.6303 125.355 20.1909 125.355 20.7214V28.3848H123.044ZM113.16 28.3848V14.5215H115.214V18.2312H115.471V28.3848H113.16ZM134.446 28.7699C133.085 28.7699 131.896 28.4703 130.877 27.8713C129.868 27.2637 129.08 26.4208 128.515 25.3425C127.951 24.2557 127.668 22.9892 127.668 21.543C127.668 20.0283 127.946 18.719 128.503 17.615C129.059 16.5025 129.833 15.6468 130.826 15.0477C131.827 14.4402 133 14.1364 134.343 14.1364C135.738 14.1364 136.923 14.4573 137.899 15.0991C138.883 15.7409 139.619 16.6566 140.107 17.8461C140.603 19.0356 140.817 20.4519 140.749 22.0949H138.438V21.2734C138.412 19.5704 138.066 18.2996 137.398 17.461C136.731 16.6138 135.738 16.1902 134.42 16.1902C133.008 16.1902 131.934 16.6437 131.198 17.5508C130.462 18.458 130.094 19.7587 130.094 21.4531C130.094 23.0876 130.462 24.3541 131.198 25.2527C131.934 26.1512 132.982 26.6005 134.343 26.6005C135.259 26.6005 136.055 26.3908 136.731 25.9715C137.407 25.5522 137.937 24.9489 138.322 24.1616L140.517 24.9189C139.978 26.1427 139.165 27.0926 138.079 27.7686C137 28.4361 135.789 28.7699 134.446 28.7699ZM129.324 22.0949V20.2593H139.568V22.0949H129.324ZM147.419 28.3848L142.066 9.90035H144.454L148.561 24.521L152.656 9.91319L155.056 9.90035L159.164 24.521L163.259 9.90035H165.659L160.307 28.3848H158.022L153.863 13.8925L149.704 28.3848H147.419ZM172.094 28.7699C170.716 28.7699 169.527 28.4575 168.526 27.8328C167.533 27.2081 166.767 26.3438 166.228 25.2398C165.689 24.1359 165.419 22.8694 165.419 21.4403C165.419 19.9855 165.693 18.7104 166.241 17.615C166.788 16.5197 167.563 15.6682 168.564 15.0606C169.565 14.4444 170.742 14.1364 172.094 14.1364C173.481 14.1364 174.674 14.4487 175.676 15.0734C176.677 15.6896 177.443 16.5496 177.973 17.6535C178.512 18.7489 178.782 20.0112 178.782 21.4403C178.782 22.8865 178.512 24.1616 177.973 25.2655C177.434 26.3609 176.664 27.2209 175.663 27.8456C174.661 28.4618 173.472 28.7699 172.094 28.7699ZM172.094 26.6005C173.532 26.6005 174.602 26.1213 175.303 25.1628C176.005 24.2044 176.356 22.9635 176.356 21.4403C176.356 19.8742 176.001 18.6291 175.29 17.7049C174.58 16.7721 173.515 16.3057 172.094 16.3057C171.127 16.3057 170.331 16.5239 169.707 16.9604C169.082 17.3968 168.616 18.0001 168.307 18.7703C167.999 19.5405 167.845 20.4305 167.845 21.4403C167.845 22.9978 168.205 24.2472 168.924 25.1885C169.642 26.1298 170.699 26.6005 172.094 26.6005ZM181.48 28.3848V14.5215H183.521V17.8718L183.187 17.4353C183.35 17.0074 183.559 16.6138 183.816 16.2544C184.081 15.895 184.377 15.5997 184.702 15.3687C185.061 15.0777 185.468 14.8552 185.921 14.7012C186.375 14.5471 186.837 14.4573 187.308 14.4316C187.778 14.3974 188.219 14.4273 188.63 14.5215V16.6651C188.15 16.5368 187.624 16.5025 187.051 16.5624C186.477 16.6223 185.947 16.832 185.459 17.1914C185.014 17.5081 184.668 17.8931 184.419 18.3467C184.18 18.8003 184.013 19.2923 183.919 19.8229C183.825 20.3449 183.778 20.8798 183.778 21.4274V28.3848H181.48ZM190.916 28.3848L190.929 9.90035H193.239V21.1964L199.054 14.5215H202.019L195.896 21.4531L202.738 28.3848H199.542L193.239 21.7098V28.3848H190.916ZM208.874 28.757C207.222 28.757 205.866 28.3976 204.805 27.6788C203.752 26.9514 203.106 25.9373 202.866 24.6365L205.203 24.2643C205.391 25.0174 205.823 25.6164 206.499 26.0614C207.175 26.4978 208.014 26.716 209.015 26.716C209.965 26.716 210.709 26.5192 211.249 26.1256C211.788 25.7319 212.057 25.1971 212.057 24.521C212.057 24.1274 211.967 23.8107 211.788 23.5711C211.608 23.3229 211.236 23.0919 210.671 22.878C210.115 22.664 209.272 22.4073 208.142 22.1078C206.918 21.7826 205.956 21.4446 205.254 21.0937C204.552 20.7428 204.052 20.3363 203.752 19.8742C203.453 19.4121 203.303 18.8516 203.303 18.1927C203.303 17.3797 203.525 16.6694 203.97 16.0618C204.415 15.4457 205.036 14.9707 205.832 14.637C206.636 14.3032 207.569 14.1364 208.63 14.1364C209.683 14.1364 210.624 14.3032 211.454 14.637C212.284 14.9707 212.952 15.4457 213.456 16.0618C213.97 16.6694 214.274 17.3797 214.368 18.1927L212.032 18.6163C211.92 17.8718 211.561 17.2856 210.953 16.8577C210.354 16.4298 209.58 16.203 208.63 16.1774C207.731 16.1431 207 16.3014 206.435 16.6523C205.879 17.0032 205.601 17.4781 205.601 18.0771C205.601 18.4109 205.703 18.6976 205.909 18.9372C206.123 19.1768 206.512 19.4036 207.077 19.6175C207.65 19.8314 208.48 20.0753 209.567 20.3492C210.791 20.6573 211.754 20.9953 212.455 21.3633C213.166 21.7227 213.67 22.1506 213.97 22.6469C214.269 23.1347 214.419 23.738 214.419 24.4568C214.419 25.7918 213.927 26.8444 212.943 27.6146C211.959 28.3762 210.603 28.757 208.874 28.757Z" fill="#9747FF"/>
</svg>
